<?xml version="1.0" standalone="no"?>
<!DOCTYPE svg PUBLIC "-//W3C//DTD SVG 20010904//EN"
 "http://www.w3.org/TR/2001/REC-SVG-20010904/DTD/svg10.dtd">
<svg version="1.0" xmlns="http://www.w3.org/2000/svg"
 width="512.000000pt" height="512.000000pt" viewBox="0 0 512.000000 512.000000"
 preserveAspectRatio="xMidYMid meet">
<metadata>
Created by potrace 1.14, written by Peter Selinger 2001-2017
</metadata>
<g transform="translate(0.000000,512.000000) scale(0.100000,-0.100000)"
fill="#000000" stroke="none">
<path d="M2409 5103 c0 -10 0 -215 0 -455 0 -241 -2 -438 -4 -438 -3 0 -76
111 -100 153 -15 25 -231 370 -280 447 -22 36 -63 100 -89 142 l-49 77 -105
-66 c-58 -36 -116 -72 -129 -80 l-23 -15 29 -42 c15 -22 86 -133 156 -246 70
-113 144 -230 164 -260 19 -30 43 -67 51 -82 26 -48 312 -501 337 -534 13 -18
19 -34 14 -40 -5 -5 -17 -23 -28 -41 -10 -18 -65 -108 -123 -199 -58 -92 -107
-172 -109 -178 -2 -5 -8 -15 -13 -21 -8 -9 -864 -1375 -907 -1447 -9 -15 -220
-354 -470 -753 l-454 -725 -138 0 -139 0 0 -150 0 -150 2560 0 2560 0 0 150 0
150 -134 0 -134 0 -23 38 c-12 20 -37 60 -54 87 -18 28 -78 124 -135 215 -56
91 -113 181 -125 200 -13 19 -96 152 -186 295 -89 143 -178 285 -198 316 -20
31 -182 291 -361 577 -179 287 -327 521 -330 521 -3 0 -19 -23 -36 -52 -17
-28 -172 -277 -344 -552 -172 -275 -313 -504 -313 -510 0 -5 55 -98 123 -205
67 -107 130 -207 139 -222 12 -21 360 -576 429 -685 l14 -23 -886 0 -887 0 16
27 c8 16 66 109 128 208 99 157 1393 2226 1427 2281 11 18 -2 44 -136 257 -82
131 -156 248 -164 262 -8 13 -59 95 -113 181 l-98 156 375 599 375 599 -27 18
c-15 10 -34 22 -42 25 -8 4 -53 32 -100 61 l-84 55 -58 -90 c-32 -49 -65 -102
-73 -117 -8 -15 -43 -70 -76 -122 -34 -52 -69 -108 -79 -125 -9 -16 -34 -57
-56 -90 -21 -33 -43 -68 -49 -77 -22 -38 -114 -184 -127 -201 -11 -14 -13 59
-11 448 l2 465 -149 0 c-136 0 -150 -2 -151 -17z"/>
</g>
</svg>
